<?xml version="1.0" encoding="utf-8"?>
<!-- Generator: Adobe Illustrator 24.0.3, SVG Export Plug-In . SVG Version: 6.00 Build 0)  -->
<svg version="1.1" id="bd2aa01f-f4df-4a9d-91d9-c88f6277d295"
	 xmlns="http://www.w3.org/2000/svg" xmlns:xlink="http://www.w3.org/1999/xlink" x="0px" y="0px" viewBox="0 0 459 1390"
	 style="enable-background:new 0 0 459 1390;" xml:space="preserve">
<style type="text/css">
</style>
<title>guitar</title>
<path d="M237.9,1372.6c0,5.1,0.6,9.4-0.3,13.3c-0.3,1.2-4.7,2-7.2,2s-8.2,0.8-8.9-4.1c-0.4-3.2,1.1-6.7,1.9-10.5l-33.1-1.3
	c-28.1-1.3-56-4.3-83.2-11.3c-20.5-5.2-40-12.8-57.4-25.1c-22.2-15.7-35-37.8-42.6-63.3c-10.2-34.3-7.6-68.5,3.6-101.7
	c10-29.4,22.4-58,34-86.9c8.6-21.4,17.3-42.8,21.7-65.7c4-21,2.2-41.2-4.8-61.4c-12.3-35.4-24-71-30-108.1
	c-3.6-22.3-5.4-44.7-0.6-67.1s17.3-40.7,40.2-49.6c1.6-0.7,3.1-3.2,3.5-5.1s0.2-5.6,0.2-8.6c5.9-2.7,11.5-1.3,17.5,4.7
	c-0.8,1.2-1.7,2.4-2.6,3.5c-3.3,3.8-4.2,6.9,0.1,11.4c5.6,6,5.3,14.5,6,22.2c1.4,15.4,2.7,30.8,7.2,45.8c7.2,23.8,37.1,38,56.1,35.8
	c14-1.7,23.5-9.4,29.7-21.6c0.9-1.8,1-4.1,1.1-6.3l2.4-149.9c0.6-37.9,1.2-75.9,1.9-113.9l2.1-123.4c1-56,1.6-112,3-167.9
	c0.4-12.8-3-22.9-12.7-30.9c-6.7-5.5-8.4-11.9-5.2-20c1.7-4.1,2.6-8.5,3.8-12.7c-3.6-2.3-5.8-2.4-8.8,0.9s-6.4,3.8-9.1,3.1
	s-4.9-4.3-5.8-7.2c-1.6-4.9,0.5-9.5,4.4-12.9c5.4-4.7,13.3-2,13.9,5.1c0.4,4.5,2.2,6.1,6.7,6.4c1.4-4.4,2.9-9,4.2-13.5l3.9-13.4
	c-3.5-2.2-6-2.6-8.6,1.1s-6.2,5.1-9.5,3s-4.8-5.5-5.5-8.7s0.9-6.2,2.3-8.8s5.3-5.7,9.7-4.7s6.2,4.5,6.8,8.7c0.2,1.1,0.2,2.1,0.2,3.2
	l5.8,2.1c1.4-4.8,2.8-9.3,4.2-13.9s2.7-8.8,4.1-13.3c-3.5-2.5-5.7-2-8.6,0.9s-6.4,3.8-9.1,3.1s-5.3-4.5-5.6-7.2s1-7.7,2.8-11.1
	s5-4.7,9-3.8s6.3,3.8,6.6,7.8s2.1,5.5,6.3,5.5c2.6-8.8,5.3-17.6,8.1-26.6c-3.2-2.1-5.6-3-8.1,0.9c-2.1,3.2-6.1,4.6-9.7,3.4
	c-3.7-1.1-6.1-4.7-5.7-8.5c0.5-3.9,1.9-8.2,4.3-11.1s6.2-3.1,8.7-2.2s5.2,4.5,5.5,7.2s2.3,5.3,6.3,5.6c2.7-8.8,5.5-17.7,8.2-26.7
	c-3.1-2.1-5.5-2.7-8.1,0.8s-5.9,5-10,3.3s-5.7-5.3-5.4-9.3c0.2-2.8,1-5.5,2.3-8c1.7-3.6,5.6-5.6,9.5-5c4.6,0.7,6.8,4,7,8
	s2,5.2,6.1,5.5c2.7-8.8,5.6-17.7,8.4-26.7c-3.2-2-5.7-2.9-8.2,0.9s-6.1,5.2-9.5,3.3c-2.9-1.8-5-4.6-5.9-7.9c-1.3-5.3,1.2-9.8,5.5-13
	s12.3-0.8,13,6c0.4,4.2,2,5.9,6.4,6l2.7-7.7c5.1-15.4,18.2-24.8,33.8-24.3s31.4,12.5,35.2,27.2s-2.2,30.8-16,39.2l-6.4,3.8
	c-8.5,5.1-10.2,9-8.3,18.6l9,46.1l8.4,44.6c0.7,3.4,0.9,6.2-2.8,8.4c-24.1,14.5-32,36.9-31.5,63.7c0.7,44.2,1.4,88.3,1.9,132.4
	c1,71.8,2,143.6,2.9,215.4c0.7,44.3,1.4,88.6,2,132.9c0.7,49.5,1.5,99,2.2,148.5c0,4.7,1,8.6,5.3,11.4c17.2,10.9,35.5,15.3,55.2,9.1
	s28.4-20.6,33.9-38.3c2.1-6.7,3-13.6,4.3-20.5c1.7-9.2,4.7-17.5,13.6-22.1c11.2-5.8,25.5-0.3,31,12.4c12.7,28.9,16.5,58.7,6.4,89.1
	c-5.6,16.6-12.7,32.8-19.3,49.2c-7.7,19.1-13.1,38.9-8.8,59.4c2.5,11.9,7.8,23.3,12.7,34.5c12.6,28.8,26.5,57.1,38.3,86.2
	s18.2,57.4,17.8,88c-0.9,51.3-33.5,107.8-98.6,122.5c-30.3,6.8-61,8.9-91.8,9.7C257.3,1372.8,247.2,1372.6,237.9,1372.6z" fill="#0a5c74"/>
</svg>
