<svg xmlns="http://www.w3.org/2000/svg" width="556.719" height="100.714" viewBox="0 0 556.719 100.714"><path d="M9.984,110.952v-10.88l25.984-12.16v10.88Zm95.488-33.664,13.184,35.456h-10.24L95.232,77.288ZM80,29.8V40.168L45.7,24.936V14.568ZM36.736,54.248V44.008L88.32,66.92V96.488L76.928,112.744H41.6v-9.088H72.064l6.656-9.6V72.936Zm116.1,10.368,64.128,48.128H200.32L141.952,68.968v-8.32l57.984-44.672h16.128Zm167.04-30.08h10.24l16.64,67.072h-10.24ZM292.1,79.72l-20.224,28.928H261.248L240.9,26.344h9.728L268.288,97.9l12.8-18.176Zm84.872-33.592H440.1V95.84l-11.44,16.328H403.8v-7.384h20.7l8.008-11.44V53.512h-10.92l-39.832,56.056H363.968V65.68Zm.832,56.056,34.632-48.672H381.024L371.56,67.864v34.32Zm77.792,8.768v-10.88l25.984-12.16v10.88ZM551.08,77.288l13.184,35.456h-10.24L540.84,77.288ZM525.608,29.8V40.168L491.3,24.936V14.568ZM482.344,54.248V44.008L533.928,66.92V96.488l-11.392,16.256H487.208v-9.088h30.464l6.656-9.6V72.936Z" transform="translate(-8.984 -13.03)" fill="black" stroke="black" stroke-width="2"/></svg>