<svg id="e2ad3b73-70ee-4a39-a523-6d05d3d9699a" xmlns="http://www.w3.org/2000/svg" viewBox="0 0 399.39956 431.76592"><title>pc</title><path d="M64.98962,406.71561q2.693-.0617,5.38608-.12335c5.08477-2.7858,10.58344-1.08221,15.88315-1.34784,3.16423-.1586,6.5892-.88727,9.46882,1.39044q3.16573.034,6.33146.06788c1.915-1.75034,4.31511-1.58976,6.62781-1.5911q90.70465-.05228,181.40935.0043c2.29589.00147,4.71713-.2612,6.63458,1.51975l6.41623.04074c1.28311-1.30176,2.9606-1.46637,4.6293-1.4885q13.23579-.17572,26.47242.00031a6.23317,6.23317,0,0,1,4.63062,1.49713l8.05228.04825a6.66949,6.66949,0,0,1,5.08108-1.53821c6.63492.53278,13.47764-1.63879,19.91145,1.50308h27.47531v13.68134c-2.47418.12061-4.88095.23795-7.28769.35529-2.427,1.98459-5.34485,1.61145-8.1463,1.61563q-33.24281.04967-66.48576.01737-149.968.00045-299.93591-.02662c-3.27146-.00109-6.724.67545-9.644-1.60778C5.14764,420.53184,2.0486,421.69392,0,418.725v-10c2.11321-.66836,4.21012-1.84509,6.34257-1.91351,7.57384-.24286,15.15982-.10776,22.7412-.11585,1.43177-1.37719,3.2585-1.51095,5.0811-1.53042q12.8695-.13728,25.73955-.00089A7.16292,7.16292,0,0,1,64.98962,406.71561Z" fill="#ede6d4"/><path d="M74.96127,319.76435c-5.78067-1.03421-8.28042-3.85785-8.89992-10.171-.12962-1.32089-.04023-2.664-.04019-3.99686q.00507-145.95453.01267-291.90907c.00005-1.16629-.06082-2.33706.01877-3.49806.27088-3.952,1.742-7.33226,5.85351-8.34131A72.12649,72.12649,0,0,1,84.0733.02911c2.76918-.19175,5.59331.62655,8.39307.62819q115.464.06773,230.928.04935c2.1625.00017,4.325,0,6.34732,0,5.09122,2.68435,6.3129,7.0245,6.30554,12.2018q-.09292,65.22951-.05551,130.45922-.00668,82.72423-.00613,165.44848c-.001,6.87732-2.28894,9.642-8.94294,10.95188-1.94363,1.667-4.323,1.57718-6.64627,1.578Q201.00108,321.39,81.60576,321.346C79.28273,321.34507,76.90278,321.436,74.96127,319.76435Z" fill="#dacdb7"/><path d="M74.96127,319.76435q126.04068.00188,252.08137.0037v32.15354l-3.33859,3.63513H78.52462c-.98744-.94412-2.1687-2.07354-3.56335-3.407Z" fill="#ede6d4"/><path d="M7.89985,420.73372q192.106.00068,384.212.0014v9.53144c-1.77569.49942-3.42425,1.05856-5.11658,1.40191a15.31524,15.31524,0,0,1-2.99279.03714q-183.99352.00014-367.987-.03351c-2.54411-.00079-5.08805-.50293-8.11563-.82217Z" fill="#daceb7"/><path d="M296.73087,406.63569q-94.34143.00765-188.68284.01749c-1.9963.00024-3.99259.03231-5.9889.04956V395.95639H296.73087Z" fill="#3f3f3f"/><path d="M64.98962,406.71561q-17.95293-.01-35.90585-.02V395.97315H64.98962Z" fill="#3f3f3f"/><path d="M338.87944,406.68537q-17.86615-.00448-35.73234-.00894V395.94611h35.73234Z" fill="#3f3f3e"/><path d="M95.72767,406.63486q-12.676-.02128-25.352-.0426V395.94169h25.352Z" fill="#434343"/><path d="M371.92425,406.69849q-12.49628.01758-24.99253.03513c-.15644-3.468-.31287-6.93592-.48536-10.75983h25.47789Z" fill="#3f3f3e"/><path d="M329.643,16.23008V302.56135c-3.79517,1.43457-245.4327,2.05493-256.69517.691a50.99021,50.99021,0,0,1-.89378-6.86584q-.08826-55.72968-.04132-111.45953,0-81.97027.00406-163.94054c.00026-2.62317-.56791-5.47856,3.28609-7.26206h4.23668q121.45594,0,242.91188.00856C325.21369,13.73327,328.29045,13.0301,329.643,16.23008Z" fill="#ede6d4"/><path d="M267.24722,347.31209V326.143c3.55655-1.65873,28.81-2.242,43.14363-1.01783,3.28967,6.90787.68414,14.41068,1.62075,22.187Z" fill="#aaa18e"/><path d="M312.70951,34.79212c.49255,3.57712,1.15668,6.165,1.15982,8.75377q.09192,75.70934.075,151.41883c.00278,3.31971-.34246,6.328-3.73349,8.55471H91.87333l-2.7715-3.34922V37.68769c1.804-3.44687,4.90181-3.96326,8.43423-3.958q48.72373.07254,97.44766.02838,54.72069,0,109.4413.04126A73.38919,73.38919,0,0,1,312.70951,34.79212Z" fill="#bab09a"/><path d="M194.40071,261.73321V248.0464h69.64738c1.14682-2.4515,1.95539-4.18,2.793-5.97058H311.297c2.75467,8.34632,1.55527,16.71619.89447,24.77015-4.79522,2.2107-40.96122,2.34769-45.8191.38785-.5802-1.31-1.24145-2.803-2.07544-4.686h-5.29928c-19.33094,0-38.66195.02631-57.99268-.036A55.93069,55.93069,0,0,1,194.40071,261.73321Z" fill="#a79f8c"/><path d="M306.58213,326.77412v15.44129H293.22559c0-4.20908-.24558-8.43823.17081-12.60114.10553-1.055,2.23086-2.51779,3.58358-2.71249C299.87562,326.48509,302.87278,326.77412,306.58213,326.77412Z" fill="#c8bca7"/><path d="M97.98014,153.72014q-.04461-3.96876-.08923-7.93752c.16791-17.37628.22478-34.75251-.029-52.12856q.06064-4.46244.12128-8.92488.41213-.31842.29136-.6567-.12221-.34314-.25407-.34322c.01653-8.65325-.11791-17.31013.08985-25.95878.23153-9.63738,5.84083-15.032,15.34921-15.2289q22.42991-.46445,44.85882-.97608c12.454-.29668,24.90489-.83558,37.36-.94624,13.75591-.12223,27.51653.02413,41.2724.23286,13.45376.20415,26.90524.5954,40.35535.986,4.80432.1395,9.61451.37838,14.39914.81975,6.79361.62669,12.01786,6.67483,12.26206,14.11727.13086,3.98746-.008,7.98377-.02515,11.97608-6.11712,2.61268-12.87616,2.92391-19.02759,5.66924a85.84107,85.84107,0,0,0-19.04267,11.75c-14.43895,11.65591-25.74454,26.46045-39.19223,39.09805-16.49953,15.50562-33.3731,30.60006-53.46355,41.50479a162.82487,162.82487,0,0,1-61.52259,19.22234c-4.18464.43059-8.46711,2.38567-12.62023-.23445q-.52968-15.51975-1.05934-31.0395.393-.34749.247-.6768Q98.11733,153.72024,97.98014,153.72014Z" fill="#5e5e5e"/><path d="M99.07328,185.76118a169.98868,169.98868,0,0,0,60.55121-13.747c12.01559-5.10075,22.92116-11.96231,33.45294-19.44686a202.749,202.749,0,0,0,18.82169-15.38786c8.598-7.821,16.94033-15.93413,25.17291-24.14213,7.28944-7.2677,14.03713-15.08852,21.4626-22.20762,9.65729-9.2588,20.49583-16.86825,33.72715-20.22868,3.80463-.96629,7.78214-1.252,11.68036-1.84982.29175,25.1425.7146,50.28446.8187,75.42773.05029,12.14629-.55106,24.29418-.7598,36.443-.16427,9.56237-5.36709,15.26058-14.88095,15.93819-2.65524.18913-5.33118.06766-7.996.14447-25.29133.72913-50.58035,1.95654-75.874,2.059-21.45687.08691-42.918-1.15871-64.37925-1.73911-8.99415-.24324-17.99605-.20277-26.98985-.45483C105.9092,196.34624,101.21641,192.81024,99.07328,185.76118Z" fill="#3b3b3b"/><path d="M98.02048,83.72926l.58221.52535-.6195.47457Z" fill="#5f5d5a"/><path d="M97.98014,153.72014q.30522.24234.61048.48555-.2883.25887-.57668.516Z" fill="#5f5d5a"/><path d="M274.00268,259.70858c-.21972-3.07672-2.6166-1.98142-4.1701-1.989-15.32818-.07531-30.65685-.04574-45.98539-.04589-6.29963-.00007-12.59925,0-19.37222,0-.157-1.80868-.2732-3.14773-.42974-4.95114h69.48233c.20987-1.16128.35077-1.94073.49163-2.72018.36057-.34218.64145-.86583,1.133-.95349a72.84266,72.84266,0,0,1,25.68632-.00336c.49188.08716.77847.60445,1.14267.94281l.01648,9.72534a6.09329,6.09329,0,0,1-4.09458,1.509q-9.90335.277-19.80771-.00046A6.08774,6.08774,0,0,1,274.00268,259.70858Z" fill="#3d3d3d"/><path d="M274.00268,259.70858q13.9975.00252,27.995.005c-.23227,1.23056-.46454,2.46113-.73023,3.86854H274.96719C274.66342,262.36214,274.333,261.03536,274.00268,259.70858Z" fill="#ece5d3"/><path d="M301.98124,249.98824q-13.981.007-27.96205.014c.61-1.41079,1.21988-2.82157,1.77457-4.1045h25.28175C301.38788,247.30855,301.68454,248.64839,301.98124,249.98824Z" fill="#ebe4d2"/><path d="M303.87977,340.424h-7.31913c-1.40591-7.059-.73919-9.00623,4.11426-11.709C304.478,331.75844,304.71888,335.78871,303.87977,340.424Z" fill="#3e3e3d"/></svg>