<svg xmlns="http://www.w3.org/2000/svg" viewBox="0 0 550 208"><g id="f2013ec0-71f0-4bb8-abe4-69790e2d1880"><g id="b035e897-ebea-4b47-ab6b-a89391a95fc8" data-name="with-background-color"><rect width="550" height="208" fill="#55c500"/><circle cx="228.8" cy="60.4" r="12.28" fill="#fff"/><path d="M346.28,42.29H326.1V68.66H312.52v18.9H326.1v38.07q0,11.16,2.84,18.27a27.69,27.69,0,0,0,7.69,11.2,26.92,26.92,0,0,0,11.43,5.62,47.62,47.62,0,0,0,12.34,1.53h15.17v-18h-13.1a22.16,22.16,0,0,1-6.25-.86,12.65,12.65,0,0,1-5.18-3,14.5,14.5,0,0,1-3.55-5.76,27.68,27.68,0,0,1-1.31-9.22V87.56H375.8V68.66H346.28Z" fill="#fff"/><path d="M189.72,100.7a58.6,58.6,0,0,0-5.05-24.21A62,62,0,0,0,171,56.9a64.35,64.35,0,0,0-20.38-13.12,67.35,67.35,0,0,0-49.84,0A63.94,63.94,0,0,0,80.44,56.9,62.39,62.39,0,0,0,66.76,76.49a60.43,60.43,0,0,0,0,48.32,63,63,0,0,0,13.68,19.64,64.63,64.63,0,0,0,45.23,18,66.4,66.4,0,0,0,17.6-2.3A64.8,64.8,0,0,0,159,153.53L171.35,166A10.3,10.3,0,1,0,186,151.42l-11.09-11.1a62.77,62.77,0,0,0,10.9-18.16A58.14,58.14,0,0,0,189.72,100.7Zm-24.94,17.07a42.69,42.69,0,0,1-9,13.64,42,42,0,0,1-30.07,12.39,41.26,41.26,0,0,1-16.46-3.3,42.12,42.12,0,0,1-13.43-9.09,43.89,43.89,0,0,1,0-61.35A42.26,42.26,0,0,1,109.21,61a41.26,41.26,0,0,1,16.46-3.3,42.06,42.06,0,0,1,30.07,12.38,42.7,42.7,0,0,1,9,13.69,45.49,45.49,0,0,1,0,34Z" fill="#fff"/><path d="M470.93,74l-1.17,9.43a43.05,43.05,0,0,0-5.71-4.63A39.63,39.63,0,0,0,457,75a46.39,46.39,0,0,0-8.17-2.58,42.78,42.78,0,0,0-9.26-1A47.75,47.75,0,0,0,420.76,75a44.25,44.25,0,0,0-14.51,9.76,43.4,43.4,0,0,0-9.35,14.47A47.79,47.79,0,0,0,393.61,117,47,47,0,0,0,397,134.72a44,44,0,0,0,9.34,14.47,43.2,43.2,0,0,0,14.47,9.71,47.91,47.91,0,0,0,18.73,3.55,42.85,42.85,0,0,0,9.21-1,45,45,0,0,0,8.18-2.59,43.11,43.11,0,0,0,7.05-3.79,41.84,41.84,0,0,0,5.83-4.67l1.17,9.42h17.35V74Zm-4.17,54.26a27.25,27.25,0,0,1-5.88,8.84,26.07,26.07,0,0,1-8.71,5.76,29.19,29.19,0,0,1-21.44,0,26.48,26.48,0,0,1-8.76-5.76,26.89,26.89,0,0,1-5.92-8.88,30.8,30.8,0,0,1,0-22.61,27.08,27.08,0,0,1,5.84-8.8,26.09,26.09,0,0,1,8.71-5.75,28.24,28.24,0,0,1,10.76-2,27.68,27.68,0,0,1,19.52,7.85,26.55,26.55,0,0,1,5.92,8.8,28.45,28.45,0,0,1,2.17,11.22A28.86,28.86,0,0,1,466.76,128.29Z" fill="#fff"/><rect x="218.91" y="86.42" width="19.78" height="73.54" fill="#fff"/><rect x="268.16" y="86.42" width="19.78" height="73.54" fill="#fff"/><circle cx="278.05" cy="60.4" r="12.28" transform="translate(115.84 294.17) rotate(-67.5)" fill="#fff"/></g></g></svg>