<svg xmlns="http://www.w3.org/2000/svg" viewBox="0 0 426.6 130"><title>アセット 1</title><g id="a03b8670-a5f9-4269-bbf7-10fabfcb04d0" data-name="レイヤー 2"><g id="f13d5abd-75a7-4fec-9674-9ee0cef833bb" data-name="レイヤー 1"><g id="b89268b6-4c33-4896-9810-a99090b2fe4f" data-name="f2013ec0-71f0-4bb8-abe4-69790e2d1880"><g id="abaac35f-05be-417a-b9a2-597005aa73f5" data-name="b035e897-ebea-4b47-ab6b-a89391a95fc8"><circle cx="167.1" cy="21.4" r="12.3" fill="#fff"/><path d="M284.6,3.3H264.4V29.7H250.8V48.6h13.6v38c0,7.5.9,13.6,2.8,18.3a28.2,28.2,0,0,0,7.7,11.2,26,26,0,0,0,11.4,5.6,43.4,43.4,0,0,0,12.4,1.5h15.1v-18H300.7a18.6,18.6,0,0,1-6.2-.8,13.6,13.6,0,0,1-5.2-3,14.4,14.4,0,0,1-3.5-5.8,26,26,0,0,1-1.3-9.2V48.6h29.6V29.7H284.6Z" fill="#fff"/><path d="M128,61.7a57.8,57.8,0,0,0-5.1-24.2,60.6,60.6,0,0,0-13.6-19.6A63.7,63.7,0,0,0,88.9,4.8a67,67,0,0,0-49.8,0A63.7,63.7,0,0,0,18.7,17.9,62.5,62.5,0,0,0,5,37.5,60.5,60.5,0,0,0,5,85.8a62.5,62.5,0,0,0,13.7,19.6,64.2,64.2,0,0,0,45.2,18,61.2,61.2,0,0,0,17.6-2.3,62.9,62.9,0,0,0,15.8-6.6L109.6,127a10.4,10.4,0,0,0,14.7-14.6l-11.1-11.1a64.2,64.2,0,0,0,10.9-18.1A58.9,58.9,0,0,0,128,61.7ZM103.1,78.8a43,43,0,0,1-9,13.6,42.8,42.8,0,0,1-46.6,9.1,40.8,40.8,0,0,1-13.4-9.1,43.8,43.8,0,0,1,0-61.3A40.8,40.8,0,0,1,47.5,22,42,42,0,0,1,103,44.8a45.4,45.4,0,0,1,0,34Z" fill="#fff"/><path d="M409.2,35,408,44.4a37,37,0,0,0-5.7-4.6,36.4,36.4,0,0,0-7-3.8,48.8,48.8,0,0,0-8.2-2.6A48.3,48.3,0,0,0,359,36a45.9,45.9,0,0,0-14.5,9.8,43,43,0,0,0-9.3,14.4A47.2,47.2,0,0,0,331.9,78a46.5,46.5,0,0,0,3.4,17.7,44.4,44.4,0,0,0,9.3,14.5,43,43,0,0,0,14.5,9.7,47.8,47.8,0,0,0,18.7,3.5,35.6,35.6,0,0,0,9.2-1,45.8,45.8,0,0,0,8.2-2.5,60.3,60.3,0,0,0,7.1-3.8,51.8,51.8,0,0,0,5.8-4.7l1.2,9.4h17.3V35ZM405,89.3a25.9,25.9,0,0,1-5.8,8.8,27.5,27.5,0,0,1-8.8,5.8,29.3,29.3,0,0,1-21.4,0,28.6,28.6,0,0,1-8.8-5.8,28.2,28.2,0,0,1-5.9-8.9,31.5,31.5,0,0,1,0-22.6,27.8,27.8,0,0,1,5.9-8.8,25.3,25.3,0,0,1,8.7-5.7,26.4,26.4,0,0,1,10.7-2,26.9,26.9,0,0,1,25.5,16.6,27.2,27.2,0,0,1,2.1,11.2A27.9,27.9,0,0,1,405,89.3Z" fill="#fff"/><rect x="157.2" y="47.4" width="19.8" height="73.54" fill="#fff"/><rect x="206.4" y="47.4" width="19.8" height="73.54" fill="#fff"/><circle cx="216.3" cy="21.4" r="12.3" fill="#fff"/></g></g></g></g></svg>