<svg id="b29a5c10-f967-40fe-9143-a0e76c562c91" xmlns="http://www.w3.org/2000/svg" xmlns:xlink="http://www.w3.org/1999/xlink" viewBox="0 0 1619.96708 1619.96708"><defs><radialGradient id="b349ce53-a7bf-4187-ab13-5395e3cf4b4d" cx="249.9824" cy="949.98352" r="599.9878" gradientTransform="matrix(1.35, 0, 0, -1.35, 472.50617, 2092.46132)" gradientUnits="userSpaceOnUse"><stop offset="0" stop-color="#000"/><stop offset="1" stop-color="#000"/></radialGradient></defs><title>stripe</title><path d="M1618.22743,862.90355a841.31986,841.31986,0,0,0,.135-105.975l-807.03,52.92v-.135l793.26-157.815a787.206,787.206,0,0,0-27.405-102.33l-765.99,260.01v-.135l725.355-357.75a812.70991,812.70991,0,0,0-53.055-91.665l-672.435,449.28a.13222.13222,0,0,0-.135-.135l608.04-533.25a817.63,817.63,0,0,0-74.925-74.925l-533.25,608.04a.13223.13223,0,0,1-.135-.135l449.41508-672.57a823.3254,823.3254,0,0,0-91.8-53.055l-357.75,725.49007h-.135l260.01-765.99a808.93075,808.93075,0,0,0-102.33-27.27l-157.815,793.125h-.135l52.92-806.895a841.335,841.335,0,0,0-105.975-.135l52.785,807.03h-.135l-157.815-793.26a787.20327,787.20327,0,0,0-102.33,27.405l260.01,765.99007h-.135l-357.75-725.355a812.71552,812.71552,0,0,0-91.665,53.055l449.28,672.435a.13222.13222,0,0,0-.135.135l-533.25-608.04011a800.98121,800.98121,0,0,0-74.925,74.925l608.04,533.25a.13222.13222,0,0,1-.135.135l-672.57-449.415a823.321,823.321,0,0,0-53.055,91.8l725.49007,357.75v.135L42.7774,549.56854a808.92907,808.92907,0,0,0-27.27,102.33l793.125,157.815v.135l-806.895-52.92a841.335,841.335,0,0,0-.135,105.975l807.03-52.785v.135l-793.26,157.815a787.20058,787.20058,0,0,0,27.405,102.33l765.99-260.01v.135l-725.355,357.75a812.7168,812.7168,0,0,0,53.055,91.665l672.435-449.28a.13223.13223,0,0,0,.135.135l-608.04,533.25005a817.62872,817.62872,0,0,0,74.925,74.925l533.25-608.04a.13222.13222,0,0,1,.135.135L359.89239,1483.63355a823.32171,823.32171,0,0,0,91.8,53.055l357.75-725.49h.135l-260.01,765.99a808.94081,808.94081,0,0,0,102.33,27.27l157.815-793.125h.135l-52.92,806.895a841.32363,841.32363,0,0,0,105.975.135l-52.785-807.03h.135l157.815,793.26a787.20229,787.20229,0,0,0,102.33-27.405l-260.01006-765.99h.135l357.75005,725.355a812.71061,812.71061,0,0,0,91.665-53.055L810.6574,811.06352a.13223.13223,0,0,0,.135-.135l533.25,608.04a817.62631,817.62631,0,0,0,74.925-74.925l-608.04-533.25a.13222.13222,0,0,1,.135-.135l672.57,449.41508a823.32862,823.32862,0,0,0,53.055-91.8l-725.49-357.75v-.135l765.99005,260.01a808.9437,808.9437,0,0,0,27.27-102.33l-793.125-157.815v-.135Z" fill="url(#b349ce53-a7bf-4187-ab13-5395e3cf4b4d)"/></svg>