<svg id="ecd7503d-fff0-4e90-97de-39eb07750617" data-name="レイヤー 1" xmlns="http://www.w3.org/2000/svg" viewBox="0 0 196 532">
  <title>violin</title>
  <path d="M93,0h9l3.3,6.5,3.3.9,1.1,4.1,4.9.9c.9,6.6.8,6.9-1.5,10.4l-4.7.5,1.8,4.8-3.8,2.4,3.2,6.6c5.8-.8,11.5,1.4,16.7-2a1.7,1.7,0,0,1,1-.1c3.6,0,7.3-.1,10.8.9s3.5,1.7,3.9,3.8a6.3,6.3,0,0,1-5.3,4.2c-3.8.3-7.9.9-11.4-.2-5.7-1.6-10.7.7-16.3.6.2,4.2-.6,8.1,1.8,11.5h13.7c.6-4.7,4.4-5.3,8-5.7,1.4-.2,2.9.5,4.3.9a8.1,8.1,0,0,1,6.2,8.9,7.6,7.6,0,0,1-7.1,7.1c-2.5.2-5,0-7.4,0l-2.9-3.7H110.5c-.5,5.3-1.2,10.2-1.4,15.1a113.2,113.2,0,0,0,.8,14.3c.7,10.1-.1,20.2,1,30.4s.1,17.8.9,26.8c1.1,13.2.9,26.5,1.2,39.8.1,1.6.2,3.2.3,5.3,2.9,0,5.6-.4,8.2.1,13,2.5,25.1,6.8,35.2,15.9a48.3,48.3,0,0,1,11.6,14.6,76.4,76.4,0,0,1,7,23.1c1.3,8.7.7,17.1-.6,25.6a59.5,59.5,0,0,1-6.7,19.8c1.1,2.9,2.4,5.8,3.3,8.7a11.6,11.6,0,0,1,.6,4.9c-.2,2.4-.9,4.7-1.4,7.4l-3-.8c-5.4-.9-10.4-.5-13.7,4.6a17.7,17.7,0,0,0-2.7,5.3,68.9,68.9,0,0,0-2,18.1c.1,1.6.8,3.2.9,4.9a51.5,51.5,0,0,0,10.1,30c4,5.4,8.9,9.5,16.2,8.7a55.9,55.9,0,0,0,7.1-1.5c3.1,2.9,3.4,6.2,1.1,9.7-1.3,1.9-1.4,4-1.5,6.2-.4,7,1.4,13.4,4.4,19.6,4.2,8.7,7.2,17.8,7.7,27.5,0,.5.6,1.1.9,1.6v18a9.5,9.5,0,0,0-.9,2.1c-.2,1.5-.1,3-.4,4.4-2.3,9.6-5.7,18.6-11.7,26.5a51.7,51.7,0,0,1-6.7,8,73.4,73.4,0,0,1-9.5,7.1,101.3,101.3,0,0,1-22.2,10.8c-7.4,2.7-15,4.8-23,5.2-.6,0-1.1.6-1.6.9H76a9.5,9.5,0,0,0-2.1-.9l-10.2-1.7c-10.3-1.9-19.9-6-29-11.1s-15.5-9.4-21-17C6.9,491.8,2.1,481.4.9,469.6c0-.6-.6-1.1-.9-1.6V448c.3-.5.9-1,.9-1.6.6-8.9,3.6-17.1,6.9-25.2,1.9-4.5,4.1-9.2,4.8-14s1.8-10.7-2.5-14.9c-.3-3.3-.2-6.2,2.4-8a46,46,0,0,0,6.4,1.6c7.3,1,12.6-2.8,16.6-8.2,6.9-9.2,10.1-19.8,10.6-31.4.1-4.4,0-8.8-.2-13.2s-.1-6-1.1-8.8c-3-9-7.9-11.7-16.6-9.9l-2.7.5a33.1,33.1,0,0,1-1.1-4.2c-.6-2.9-1-5.9.6-8.7,2.6-4.7,2.3-9.4,0-14.2-3.2-6.5-4.2-13.6-4.9-20.6a76.3,76.3,0,0,1,.6-15.8,121.5,121.5,0,0,1,5.2-21.6,45.3,45.3,0,0,1,17.2-22.5A65.7,65.7,0,0,1,62.3,198a70.3,70.3,0,0,1,18.3-3.3,38.4,38.4,0,0,0,1.3-6c.2-6.1,0-12.2,1-18.4s.2-9.5.9-14.3.1-12.5,1.1-18.8c.6-4.7.3-9.5.9-14.4.9-8.2.8-16.5,1.2-24.8.1-2.3.7-4.5.8-6.8a106.9,106.9,0,0,0-.1-16H71.6c-1.6,6-1.7,6-10.6,5.7-6.7-4.3-8.2-7.7-6.2-13.7s5.8-7.5,12.6-6.9c2.7,1.3,3.1,4.1,4.2,6.7,5-.3,9.9.6,15.3-.6-.1-4.6.5-8.8-.4-13.4H59.9a2.5,2.5,0,0,1-2.8-2.2c-.3-1.5.8-2.6,2.8-2.8,8.5-.8,17-2.7,25.6-2.1a5.9,5.9,0,0,0,1.8-.3c1.1-5.3,2.1-10.1,3.1-15.1-2.7-1.4-.7-4.6-1.8-6.9l-5,1.5c-2.6-2.9-3.6-6.2-4.7-10L87,12.4C86,9,89,8.2,90.4,7Z" fill="#0a5c74" />
</svg>
